<svg xmlns="http://www.w3.org/2000/svg" viewBox="0 0 32 32" width="32" height="32">
  <!-- Dark background circle -->
  <circle cx="16" cy="16" r="16" fill="#06060f"/>

  <!-- Green quadrant (top-left) -->
  <path d="M16,16 L16,2 A14,14 0 0,0 2,16 Z" fill="#22c55e" opacity="0.9"/>
  <!-- Red quadrant (top-right) -->
  <path d="M16,16 L30,16 A14,14 0 0,0 16,2 Z" fill="#ef4444" opacity="0.9"/>
  <!-- Yellow quadrant (bottom-left) -->
  <path d="M16,16 L2,16 A14,14 0 0,0 16,30 Z" fill="#eab308" opacity="0.9"/>
  <!-- Blue quadrant (bottom-right) -->
  <path d="M16,16 L16,30 A14,14 0 0,0 30,16 Z" fill="#3b82f6" opacity="0.9"/>

  <!-- Cross divider -->
  <line x1="16" y1="2" x2="16" y2="30" stroke="#06060f" stroke-width="1.5"/>
  <line x1="2" y1="16" x2="30" y2="16" stroke="#06060f" stroke-width="1.5"/>

  <!-- Center hub -->
  <circle cx="16" cy="16" r="4" fill="#06060f"/>
  <circle cx="16" cy="16" r="2" fill="#ffffff" opacity="0.3"/>
</svg>
